<svg width="198" height="173" viewBox="0 0 198 173" fill="none" xmlns="http://www.w3.org/2000/svg">
<path d="M98.8014 74.1019C68.1545 74.1019 24.7022 121.479 24.7022 151.385C24.7022 164.854 35.0491 172.901 52.3891 172.901C71.2381 172.901 83.6844 163.222 98.8014 163.222C114.05 163.222 126.531 172.901 145.214 172.901C162.554 172.901 172.901 164.854 172.901 151.385C172.901 121.479 129.448 74.1019 98.8014 74.1019ZM41.9612 69.2353C37.9474 55.8627 25.5821 47.2024 14.3438 49.8885C3.10538 52.5746 -2.74923 65.5921 1.26448 78.9647C5.27818 92.3373 17.6435 100.998 28.8819 98.3115C40.1203 95.6255 45.9749 82.6079 41.9612 69.2353ZM74.6574 61.2156C86.5982 58.0741 92.5725 41.9421 88.003 25.1849C83.4336 8.42765 70.0494 -2.60619 58.1086 0.535309C46.1678 3.67681 40.1936 19.8088 44.763 36.5661C49.3325 53.3233 62.7205 64.361 74.6574 61.2156ZM183.255 49.8923C172.017 47.2062 159.655 55.8666 155.638 69.2392C151.624 82.6118 157.479 95.6293 168.717 98.3154C179.956 101.001 192.317 92.3412 196.335 78.9686C200.348 65.596 194.494 52.5784 183.255 49.8923ZM122.945 61.2156C134.886 64.3571 148.27 53.3233 152.84 36.5661C157.409 19.8088 151.435 3.68067 139.494 0.535309C127.553 -2.61005 114.169 8.42765 109.6 25.1849C105.03 41.9421 111.005 58.0741 122.945 61.2156Z" fill="#6C7686"/>
</svg>
